<?xml version="1.0" encoding="UTF-8" standalone="no"?>
<svg
   xmlns:dc="http://purl.org/dc/elements/1.1/"
   xmlns:cc="http://creativecommons.org/ns#"
   xmlns:rdf="http://www.w3.org/1999/02/22-rdf-syntax-ns#"
   xmlns:svg="http://www.w3.org/2000/svg"
   xmlns="http://www.w3.org/2000/svg"
   xmlns:sodipodi="http://sodipodi.sourceforge.net/DTD/sodipodi-0.dtd"
   xmlns:inkscape="http://www.inkscape.org/namespaces/inkscape"
   viewBox="0 0 630.5303 812"
   height="812"
   width="812"
   xml:space="preserve"
   id="svg2"
   version="1.1"
   inkscape:version="0.91 r13725"
   sodipodi:docname="TwinThreads_icon.svg"><sodipodi:namedview
     pagecolor="#ffffff"
     bordercolor="#666666"
     borderopacity="1"
     objecttolerance="10"
     gridtolerance="10"
     guidetolerance="10"
     inkscape:pageopacity="0"
     inkscape:pageshadow="2"
     inkscape:window-width="1065"
     inkscape:window-height="786"
     id="namedview22"
     showgrid="false"
     inkscape:zoom="1"
     inkscape:cx="335"
     inkscape:cy="281"
     inkscape:window-x="0"
     inkscape:window-y="0"
     inkscape:window-maximized="0"
     inkscape:current-layer="svg2" /><metadata
     id="metadata8"><rdf:RDF><cc:Work
         rdf:about=""><dc:format>image/svg+xml</dc:format><dc:type
           rdf:resource="http://purl.org/dc/dcmitype/StillImage" /><dc:title></dc:title></cc:Work></rdf:RDF></metadata><defs
     id="defs6"><clipPath
       id="clipPath18"
       clipPathUnits="userSpaceOnUse"><path
         id="path16"
         d="M 0,612 792,612 792,0 0,0 Z"
         inkscape:connector-curvature="0" /></clipPath></defs><g
     transform="matrix(2.1991793,0,0,-2.1991793,-557.64116,1080.5145)"
     id="g10"><g
       id="g12"><g
         clip-path="url(#clipPath18)"
         id="g14"><g
           transform="translate(581.0684,306.4961)"
           id="g20"><path
             id="path22"
             style="fill:#000006;fill-opacity:1;fill-rule:nonzero;stroke:none"
             d="m 0,0 c 0,-102.003 -82.689,-184.692 -184.693,-184.692 -102.003,0 -184.692,82.689 -184.692,184.692 0,102.003 82.689,184.693 184.692,184.693 C -82.689,184.693 0,102.003 0,0"
             inkscape:connector-curvature="0" /></g><g
           transform="translate(419.5537,193.8936)"
           id="g24"><path
             id="path26"
             style="fill:#838795;fill-opacity:1;fill-rule:nonzero;stroke:none"
             d="m 0,0 -138.822,0 0,141.558 182.189,0 49.05,-49.055 -185.864,0 0,-43.455 44.517,0 z"
             inkscape:connector-curvature="0" /></g><g
           transform="translate(511.9668,286.3965)"
           id="g28"><path
             id="path30"
             style="fill:#ffffff;fill-opacity:1;fill-rule:nonzero;stroke:none"
             d="m 0,0 0,138.967 -141.319,0 -0.002,-182.189 48.909,-49.281 -0.076,186.096 43.435,0 0,-44.518 z"
             inkscape:connector-curvature="0" /></g><g
           transform="translate(370.6475,425.3638)"
           id="g32"><path
             id="path34"
             style="fill:#c6c7ce;fill-opacity:1;fill-rule:nonzero;stroke:none"
             d="m 0,0 -0.001,-182.419 44.976,-45.1 L 0.12,0 Z"
             inkscape:connector-curvature="0" /></g><g
           transform="translate(419.5137,335.4556)"
           id="g36"><path
             id="path38"
             style="fill:#676c7b;fill-opacity:1;fill-rule:nonzero;stroke:none"
             d="M 0,0 43.396,0 92.449,-49.059 Z"
             inkscape:connector-curvature="0" /></g><g
           transform="translate(326.144,242.9395)"
           id="g40"><path
             id="path42"
             style="fill:#676c7b;fill-opacity:1;fill-rule:nonzero;stroke:none"
             d="M 0,0 44.471,0 93.41,-49.046 Z"
             inkscape:connector-curvature="0" /></g></g></g></g></svg>